# xmcd
#
# Track frame offsets:
#	150
#	16909
#	33203
#	50296
#	69152
#	81021
#	93993
#	107492
#	120536
#	145097
#	161784
#	174966
#	191006
#
# Disc length: 2687 seconds
#
# Revision: 1
# Processed by: cddbd v1.5.2PL0 Copyright (c) Steve Scherf et al.
# Submitted via: audiograbber 1.83.01
#
DISCID=970a7d0d
DTITLE=Koenigsbrunner Seemannschor - Auf grosser Fahrt!
DYEAR=1900
DGENRE=Chorus
TTITLE0=Capitano
TTITLE1=Windstaerke 4
TTITLE2=Sloop John B
TTITLE3=Johnny Johnny John
TTITLE4=Wenn weisse Wolken wandern
TTITLE5=Hejo hejo Gin und Rum
TTITLE6=Das schmeisst doch einen Seemann
TTITLE7=Vaja con dios
TTITLE8=Suedseemedley
TTITLE9=Irgendwann gibts ein Wiedersehn
TTITLE10=Bye bye Roseanna
TTITLE11=Vergangen vergessen vorueber
TTITLE12=Licht aus und Ruh im Schiff
EXTD=
EXTT0=
EXTT1=
EXTT2=
EXTT3=
EXTT4=
EXTT5=
EXTT6=
EXTT7=
EXTT8=
EXTT9=
EXTT10=
EXTT11=
EXTT12=
PLAYORDER=
